# AST/ASF file generated using VICON BodyLanguage
# -----------------------------------------------
:version 1.10
:name VICON
:units
  mass 1.0
  length 0.45
  angle deg
:documentation
   .ast/.asf automatically generated from VICON data using
   VICON BodyBuilder and BodyLanguage model FoxedUp or BRILLIANT.MOD
:root
   order TX TY TZ RX RY RZ
   axis XYZ
   position 0 0 0  
   orientation 0 0 0 
:bonedata
  begin
     id 1 
     name lhipjoint
     direction 0.702568 -0.596508 0.388042 
     length 2.56661 
     axis 0 0 0  XYZ
  end
  begin
     id 2 
     name lfemur
     direction 0.34202 -0.939693 0  
     length 6.58374  
     axis 0 0 20  XYZ
    dof rx ry rz
    limits (-160.0 20.0)
           (-70.0 70.0)
           (-60.0 70.0)
  end
  begin
     id 3 
     name ltibia
     direction 0.34202 -0.939693 0   
     length 6.62538   
     axis 0 0 20   XYZ
    dof rx
    limits (-10.0 170.0)
  end
  begin
     id 4 
     name lfoot
     direction 0.10455 -0.287249 0.952133   
     length 2.26699   
     axis -90 7.62852e-016 20   XYZ
    dof rx rz
    limits (-45.0 90.0)
           (-70.0 20.0)
  end
  begin
     id 5 
     name ltoes
     direction 1.53572e-011 -4.22322e-011 1   
     length 1.12949   
     axis -90 7.62852e-016 20   XYZ
    dof rx
    limits (-90.0 20.0)
  end
  begin
     id 6 
     name rhipjoint
     direction -0.728055 -0.574632 0.373811   
     length 2.66432  
     axis 0 0 0  XYZ 
  end
  begin
     id 7 
     name rfemur
     direction -0.34202 -0.939693 0   
     length 6.66732   
     axis 0 0 -20   XYZ
    dof rx ry rz
    limits (-160.0 20.0)
           (-70.0 70.0)
           (-70.0 60.0)
  end
  begin
     id 8 
     name rtibia
     direction -0.34202 -0.939693 0   
     length 6.59288   
     axis 0 0 -20   XYZ
    dof rx
    limits (-10.0 170.0)
 end
 begin
     id 9 
     name rfoot
     direction -0.119193 -0.327479 0.93731   
     length 2.38061  
     axis -90 -7.62852e-016 -20   XYZ
    dof rx rz
    limits (-45.0 90.0)
           (-20.0 70.0)
  end
  begin
     id 10 
     name rtoes
     direction -1.53547e-011 -4.21827e-011 1   
     length 1.17899   
     axis -90 -7.62852e-016 -20   XYZ
    dof rx
    limits (-90.0 20.0)
  end
  begin
     id 11 
     name lowerback
     direction -0.000416114 0.999912 -0.0132284   
     length 2.12109   
     axis 0 0 0   XYZ
    dof rx ry rz
    limits (-20.0 45.0)
           (-30.0 30.0)
           (-30.0 30.0)
  end
  begin
     id 12 
     name upperback
     direction -0.00136371 0.99809 0.0617608   
     length 2.10067   
     axis 0 0 0   XYZ
    dof rx ry rz
    limits (-20.0 45.0)
           (-30.0 30.0)
           (-30.0 30.0)
  end
  begin
     id 13 
     name thorax
     direction -3.43026e-005 0.997776 0.0666515   
     length 2.10618   
     axis 0 0 0   XYZ
    dof rx ry rz
    limits (-20.0 45.0)
           (-30.0 30.0)
           (-30.0 30.0)
  end
  begin
     id 14 
     name lowerneck
     direction 0.0398646 0.998418 0.0396592   
     length 1.83817   
     axis 0 0 0   XYZ
    dof rx ry rz
    limits (-20.0 45.0)
           (-30.0 30.0)
           (-30.0 30.0)
  end
  begin
     id 15 
     name upperneck
     direction -0.0367268 0.961527 -0.272244   
     length 1.81975   
     axis 0 0 0   XYZ
    dof rx ry rz
    limits (-20.0 45.0)
           (-30.0 30.0)
           (-30.0 30.0)
  end
  begin
     id 16
     name head
     direction -0.0182665 0.99536 -0.0944669  
     length 1.86026  
     axis 0 0 0   XYZ
    dof rx ry rz
    limits (-20.0 45.0)
           (-30.0 30.0)
           (-30.0 30.0)
  end
  begin
     id 17 
     name lclavicle
     direction 0.924239 0.361045 0.124212  
     length 3.26878  
     axis 0 0 0   XYZ
    dof ry rz
    limits (-20.0 10.0)
           (0.0 20.0)
  end
  begin
     id 18 
     name lhumerus
     direction 1 -4.48968e-011 -2.56583e-027   
     length 4.58538   
     axis 180 -30 -90   XYZ
    dof rx ry rz
    limits (-60.0 90.0)
           (-90.0 90.0)
           (-90.0 90.0)
  end
  begin
     id 19
     name lradius
     direction 1 -4.4898e-011 -5.50375e-027   
     length 2.68935   
     axis 180 -30 -90   XYZ
    dof rx
    limits (-10.0 170.0)
  end
  begin
     id 20
     name lwrist
     direction 1 -4.48939e-011 -1.48955e-026   
     length 1.34468   
     axis 9.0955e-015 90 90   XYZ
    dof ry
    limits (-180.0 0.0)
 end
  begin
     id 21 
     name lhand
     direction 1 -4.48936e-011 -2.97907e-026   
     length 0.585058   
     axis 1.90115e-014 90 90   XYZ
    dof rx rz
    limits (-90.0 90.0)
           (-45.0 45.0)
  end
  begin
     id 22 
     name lfingers
     direction 1 -4.49082e-011 -5.96235e-026   
     length 0.471689   
     axis 3.80223e-014 90 90   XYZ
    dof rx
    limits (0.0 90.0)
  end
  begin
     id 23
     name lthumb
     direction 0.707107 -6.3489e-011 0.707107   
     length 0.677253   
     axis -90 45 -3.84942e-014   XYZ
    dof rx rz
    limits (-45.0 45.0)
           (-45.0 45.0)
  end
  begin
     id 24 
     name rclavicle
     direction -0.923098 0.371783 0.0983239   
     length 3.19656  
     axis 0 0 0   XYZ 
    dof ry rz
    limits (-10.0 20.0)
           (-20.0 0.0)
  end
  begin
     id 25 
     name rhumerus
     direction -1 -4.48976e-011 -2.5492e-027  
     length 4.4745   
     axis 180 30 90   XYZ
    dof rx ry rz
    limits (-90.0 60.0)
           (-90.0 90.0)
           (-90.0 90.0)
  end
  begin
     id 26 
     name rradius
     direction -1 -4.48941e-011 -4.36555e-027   
     length 2.93896   
     axis 180 30 90   XYZ
    dof rx
    limits (-10.0 170.0)
  end
  begin
     id 27 
     name rwrist
     direction -1 -4.49044e-011 -1.49032e-026   
     length 1.46948   
     axis 9.0955e-015 -90 -90   XYZ
    dof ry
    limits (-180.0 0.0)
  end
  begin
     id 28
     name rhand
     direction -1 -4.48826e-011 -2.97749e-026   
     length 0.405092   
     axis 1.90115e-014 -90 -90   XYZ
    dof rx rz
    limits (-90.0 90.0)
           (-45.0 45.0)
  end
  begin
     id 29
     name rfingers
     direction -1 -4.49209e-011 -5.96602e-026   
     length 0.326596   
     axis 3.80223e-014 -90 -90   XYZ
    dof rx
    limits (0.0 90.0)
  end
  begin
     id 30
     name rthumb
     direction -0.707107 -6.34776e-011 0.707107   
     length 0.468928   
     axis -90 -45 3.84942e-014   XYZ
    dof rx rz
    limits (-45.0 45.0)
           (-45.0 45.0)
  end
:hierarchy
  begin
    root lhipjoint rhipjoint lowerback
    lhipjoint lfemur
    lfemur ltibia
    ltibia lfoot
    lfoot ltoes
    rhipjoint rfemur
    rfemur rtibia
    rtibia rfoot
    rfoot rtoes
    lowerback upperback
    upperback thorax
    thorax lowerneck lclavicle rclavicle
    lowerneck upperneck
    upperneck head
    lclavicle lhumerus
    lhumerus lradius
    lradius lwrist
    lwrist lhand lthumb
    lhand lfingers
    rclavicle rhumerus
    rhumerus rradius
    rradius rwrist
    rwrist rhand rthumb
    rhand rfingers
  end

#!OML:ASF H:\Punching\Project 1\Capture day 1\Session 1\female.ASF
:FULLY-SPECIFIED
:DEGREES
875
root 2.50367 14.0608 -0.530581 16.6089 9.29668 5.6624
lowerback -4.73607 -2.91073 -5.55904
upperback -8.70059 -3.76446 1.86754
thorax -5.97823 -1.46668 5.07186
lowerneck -10.9524 2.99797 10.185
upperneck 26.9858 4.81212 -10.0301
head 10.9659 2.10844 -4.81156
rclavicle 2.44505e-014 2.70347e-014
rhumerus 8.50369 8.23523 -55.4099
rradius 132.252
rwrist -15.8404
rhand -31.2152 5.24706
rfingers 7.12502
rthumb -4.49097 -24.6853
lclavicle 2.44505e-014 2.70347e-014
lhumerus 11.3128 -29.3154 76.8808
lradius 132.32
lwrist -3.61023
lhand -26.3598 2.21431
lfingers 7.12502
lthumb 0.19822 32.194
rfemur -65.02 -20.7074 10.2514
rtibia 61.3764
rfoot -6.47621 -7.50382
rtoes -10.5384
lfemur 5.24883 -13.5769 -21.6183
ltibia 18.6076
lfoot -38.6853 34.0615
ltoes -7.79315
876
root 2.4748 14.0287 -0.466613 16.5843 8.98739 5.72722
lowerback -4.91076 -3.12466 -5.74986
upperback -8.80329 -4.0401 1.93388
thorax -5.94182 -1.59061 5.23887
lowerneck -10.9152 3.25325 10.4572
upperneck 27.0083 5.18956 -10.2689
head 11.0293 2.28215 -4.90219
rclavicle 4.67144e-015 3.18055e-015
rhumerus 7.79382 7.76803 -54.6647
rradius 132.354
rwrist -16.2967
rhand -31.0836 5.0947
rfingers 7.12502
rthumb -4.36383 -24.8403
lclavicle 4.67144e-015 3.18055e-015
lhumerus 11.4279 -29.4235 77.4181
lradius 132.158
lwrist -3.66486
lhand -26.4063 2.1893
lfingers 7.12502
lthumb 0.153308 32.169
rfemur -65.5068 -20.9724 10.8789
rtibia 62.0244
rfoot -7.33436 -7.7127
rtoes -10.7798
lfemur 5.73764 -13.835 -21.7991
ltibia 18.4906
lfoot -39.1173 34.3095
ltoes -7.90921
877
root 2.44337 13.9958 -0.398345 16.5509 8.65547 5.75889
lowerback -5.09406 -3.34107 -5.90624
upperback -8.90784 -4.3179 2.01111
thorax -5.90131 -1.71762 5.396
lowerneck -10.8793 3.52266 10.7341
upperneck 27.0266 5.5904 -10.5201
head 11.0977 2.46557 -4.99497
rclavicle -2.25621e-014 4.77083e-015
rhumerus 7.11532 7.28039 -53.8574
rradius 132.44
rwrist -16.7438
rhand -30.9878 4.91873
rfingers 7.12502
rthumb -4.27135 -25.0182
lclavicle -2.25621e-014 4.77083e-015
lhumerus 11.5262 -29.5116 77.9349
lradius 132.07
lwrist -3.69877
lhand -26.4076 2.3704
lfingers 7.12502
lthumb 0.15209 32.3501
rfemur -65.9454 -21.1642 11.569
rtibia 62.6256
rfoot -8.00768 -7.86688
rtoes -10.5493
lfemur 6.25762 -14.1354 -21.9635
ltibia 18.3894
lfoot -39.5712 34.5785
ltoes -8.1141
878
root 2.40915 13.9617 -0.325808 16.5084 8.29181 5.77423
lowerback -5.27805 -3.55974 -6.05024
upperback -9.01338 -4.59818 2.09548
thorax -5.85953 -1.84658 5.55205
lowerneck -10.8516 3.8089 11.0213
upperneck 27.0409 6.0169 -10.7842
head 11.1734 2.66002 -5.09055
rclavicle 4.72114e-015 6.36111e-015
rhumerus 6.48267 6.7682 -52.9828
rradius 132.499
rwrist -17.1698
rhand -30.9149 4.71528
rfingers 7.12502
rthumb -4.201 -25.223
lclavicle 4.72114e-015 6.36111e-015
lhumerus 11.611 -29.5708 78.4129
lradius 132.053
lwrist -3.69679
lhand -26.3893 2.74733
lfingers 7.12502
lthumb 0.169768 32.727
rfemur -66.3289 -21.269 12.2788
rtibia 63.1924
rfoot -8.56639 -7.92825
rtoes -9.81703
lfemur 6.81733 -14.4452 -22.1252
ltibia 18.2836
lfoot -39.9887 34.8736
ltoes -8.4838
879
root 2.37198 13.9261 -0.248983 16.4539 7.87844 5.78421
lowerback -5.45874 -3.78156 -6.19989
upperback -9.11595 -4.88214 2.19027
thorax -5.8129 -1.97712 5.72061
lowerneck -10.8439 4.11752 11.305
upperneck 27.0536 6.47753 -11.0549
head 11.2608 2.86822 -5.18282
rclavicle 3.05134e-014 1.66979e-014
rhumerus 5.92085 6.23851 -52.0299
rradius 132.522
rwrist -17.5611
rhand -30.898 4.56117
rfingers 7.12502
rthumb -4.18462 -25.3775
lclavicle 3.05134e-014 1.66979e-014
lhumerus 11.6767 -29.5835 78.8365
lradius 132.068
lwrist -3.71216
lhand -26.4304 3.16429
lfingers 7.12502
lthumb 0.130089 33.144
rfemur -66.6521 -21.2579 12.9621
rtibia 63.7355
rfoot -9.06512 -7.92938
rtoes -8.48492
lfemur 7.43982 -14.7481 -22.3037
ltibia 18.1467
lfoot -40.3798 35.1767
ltoes -8.95033
880
root 2.33132 13.8893 -0.16775 16.3842 7.40957 5.79355
lowerback -5.63364 -3.99939 -6.36199
upperback -9.21976 -5.16075 2.28568
thorax -5.76893 -2.10421 5.89576
lowerneck -10.8317 4.4385 11.5938
upperneck 27.0587 6.95649 -11.3273
head 11.3509 3.08506 -5.27317
rclavicle 5.56597e-015 1.59028e-015
rhumerus 5.42638 5.67781 -51.0153
rradius 132.503
rwrist -17.922
rhand -30.8986 4.41206
rfingers 7.12502
rthumb -4.18521 -25.5266
lclavicle 5.56597e-015 1.59028e-015
lhumerus 11.7205 -29.5419 79.2093
lradius 132.047
lwrist -3.74705
lhand -26.5731 3.36772
lfingers 7.12502
lthumb -0.00777114 33.3475
rfemur -66.9068 -21.1048 13.5758
rtibia 64.2651
rfoot -9.5575 -7.91589
rtoes -6.69702
lfemur 8.13389 -15.0085 -22.4971
ltibia 17.9486
lfoot -40.6838 35.4954
ltoes -9.57052
881
root 2.2869 13.8518 -0.0820499 16.3008 6.88059 5.81011
lowerback -5.8061 -4.21183 -6.54577
upperback -9.32384 -5.43182 2.37963
thorax -5.72442 -2.22639 6.08034
lowerneck -10.8205 4.77011 11.8815
upperneck 27.0632 7.45115 -11.5955
head 11.447 3.30916 -5.35875
rclavicle 2.54444e-014 -7.15625e-015
rhumerus 5.0046 5.08557 -49.9485
rradius 132.446
rwrist -18.2788
rhand -30.9243 4.27707
rfingers 7.12502
rthumb -4.21006 -25.6611
lclavicle 2.54444e-014 -7.15625e-015
lhumerus 11.7359 -29.4325 79.5327
lradius 131.958
lwrist -3.80676
lhand -26.8443 3.17892
lfingers 7.12502
lthumb -0.26974 33.1585
rfemur -67.0985 -20.7983 14.0845
rtibia 64.7912
rfoot -10.0807 -7.92384
rtoes -4.56847
lfemur 8.91043 -15.2114 -22.7122
ltibia 17.6734
lfoot -40.9313 35.7843
ltoes -10.2258
882
root 2.2384 13.8139 0.00809647 16.207 6.2881 5.83968
lowerback -5.98068 -4.41346 -6.75457
upperback -9.42664 -5.68786 2.46503
thorax -5.67661 -2.34007 6.26858
lowerneck -10.8217 5.10855 12.1661
upperneck 27.0734 7.95398 -11.8529
head 11.5524 3.5372 -5.43752
rclavicle -6.04305e-014 2.3059e-014
rhumerus 4.64719 4.45743 -48.8353
rradius 132.34
rwrist -18.6296
rhand -30.9777 4.16255
rfingers 7.12502
rthumb -4.26161 -25.7746
lclavicle -6.04305e-014 2.3059e-014
lhumerus 11.7235 -29.2539 79.8133
lradius 131.794
lwrist -3.87112
lhand -27.1947 2.64207
lfingers 7.12502
lthumb -0.608096 32.6209
rfemur -67.2448 -20.336 14.4712
rtibia 65.3274
rfoot -10.5937 -7.99088
rtoes -2.29245
lfemur 9.75681 -15.3242 -22.9442
ltibia 17.321
lfoot -41.0932 36.0346
ltoes -10.9219
883
root 2.18563 13.7764 0.102378 16.1151 5.63821 5.88888
lowerback -6.16522 -4.60724 -6.992
upperback -9.53507 -5.9322 2.54166
thorax -5.62795 -2.4464 6.46195
lowerneck -10.8283 5.45164 12.4426
upperneck 27.0947 8.46362 -12.0971
head 11.6672 3.76845 -5.50803
rclavicle 1.799e-014 2.38542e-015
rhumerus 4.3515 3.79656 -47.6836
rradius 132.207
rwrist -19.0314
rhand -31.0165 3.97713
rfingers 7.12502
rthumb -4.29909 -25.9592
lclavicle 1.799e-014 2.38542e-015
lhumerus 11.6766 -29.0311 80.0417
lradius 131.597
lwrist -3.93806
lhand -27.5777 1.94187
lfingers 7.12502
lthumb -0.978064 31.9194
rfemur -67.3723 -19.7352 14.7384
rtibia 65.8871
rfoot -11.0574 -8.12724
rtoes -0.177121
lfemur 10.6472 -15.3388 -23.1871
ltibia 16.9099
lfoot -41.1703 36.214
ltoes -11.6275
884
root 2.12862 13.7395 0.200574 16.0251 4.94122 5.96068
lowerback -6.36206 -4.79672 -7.25562
upperback -9.64844 -6.16926 2.60882
thorax -5.576 -2.54789 6.65787
lowerneck -10.8455 5.80094 12.7116
upperneck 27.135 8.98265 -12.3282
head 11.7961 4.00384 -5.57005
rclavicle 1.63997e-014 -2.3059e-014
rhumerus 4.11085 3.1191 -46.4969
rradius 132.043
rwrist -19.5123
rhand -31.0222 3.69038
rfingers 7.12502
rthumb -4.30457 -26.2459
lclavicle 1.63997e-014 -2.3059e-014
lhumerus 11.5924 -28.7781 80.2077
lradius 131.444
lwrist -3.93557
lhand -27.9169 1.38628
lfingers 7.12502
lthumb -1.30569 31.362
rfemur -67.4878 -19.0192 14.8962
rtibia 66.4829
rfoot -11.484 -8.31044
rtoes 1.6078
lfemur 11.5622 -15.2485 -23.4311
ltibia 16.4678
lfoot -41.1495 36.3069
ltoes -12.3481
